<svg width="112" height="104" viewBox="0 0 112 104" fill="none" xmlns="http://www.w3.org/2000/svg">
<g filter="url(#filter0_f_201_52)">
<path d="M44.5766 55.5641C43.613 54.8305 43.1006 54.2888 42.8462 53.9673L42.8044 53.4785C42.6868 52.1017 42.8009 49.9848 43.3635 47.6874C43.736 46.1662 44.2143 44.9337 44.6764 44.0198C51.1302 46.9582 57.6013 48.7707 62.648 50.0728C61.4525 52.3534 60.4545 54.4717 59.5933 56.3893C59.0205 57.6649 58.3737 59.1645 57.8598 60.3559C57.7958 60.5043 57.7339 60.6478 57.6745 60.7856C51.6302 59.6546 47.1582 57.5298 44.5766 55.5641ZM45.7028 42.4448C45.7028 42.4451 45.6968 42.4512 45.6844 42.4622C45.6965 42.45 45.7027 42.4445 45.7028 42.4448ZM74.9053 53.4596C74.9052 53.4597 74.8998 53.4572 74.8896 53.452C74.9003 53.457 74.9054 53.4596 74.9053 53.4596ZM42.69 53.7512C42.6374 53.669 42.6205 53.6265 42.6252 53.6258C42.6298 53.6251 42.6561 53.6662 42.69 53.7512Z" stroke="#FFC2EE" stroke-width="38.646"/>
</g>
<defs>
<filter id="filter0_f_201_52" x="0.0791245" y="0.569359" width="111.462" height="103.373" filterUnits="userSpaceOnUse" color-interpolation-filters="sRGB">
<feFlood flood-opacity="0" result="BackgroundImageFix"/>
<feBlend mode="normal" in="SourceGraphic" in2="BackgroundImageFix" result="shape"/>
<feGaussianBlur stdDeviation="11.6821" result="effect1_foregroundBlur_201_52"/>
</filter>
</defs>
</svg>
