<svg width="192" height="196" viewBox="0 0 192 196" fill="none" xmlns="http://www.w3.org/2000/svg">
<g style="mix-blend-mode:hard-light" filter="url(#filter0_f_95_3282)">
<path d="M80.4122 45.6064C101.021 39.6981 122.717 47.7769 136.024 64.3577C140.492 69.9245 144.014 76.4501 146.232 83.7269C148.192 90.1576 148.968 96.6331 148.687 102.905C147.704 124.857 133.77 144.289 112.357 150.428C107.78 151.754 102.999 152.396 98.0321 152.352C85.9762 152.203 74.2953 147.701 64.8918 139.941C56.5335 133.045 49.969 123.578 46.5347 112.308C43.0632 100.917 43.3068 89.3824 46.5578 79.1011C50.4208 66.8837 58.5307 56.4361 69.6982 50.0992C73.0116 48.219 76.5925 46.7014 80.4122 45.6064Z" fill="url(#paint0_radial_95_3282)"/>
</g>
<g style="mix-blend-mode:plus-lighter" filter="url(#filter1_f_95_3282)">
<path d="M82.4911 52.7312C96.9864 48.5757 112.246 54.2578 121.605 65.9198C124.748 69.8352 127.225 74.4249 128.785 79.543C130.163 84.066 130.709 88.6204 130.512 93.0318C129.82 108.472 120.02 122.139 104.959 126.457C101.74 127.389 98.3775 127.841 94.884 127.81C86.4045 127.705 78.1888 124.539 71.575 119.081C65.6962 114.231 61.0791 107.572 58.6636 99.6455C56.222 91.6336 56.3933 83.5207 58.6799 76.2895C61.3969 67.6965 67.1009 60.3482 74.9555 55.8912C77.2859 54.5688 79.8045 53.5014 82.4911 52.7312Z" fill="url(#paint1_radial_95_3282)"/>
</g>
<defs>
<filter id="filter0_f_95_3282" x="0.795635" y="0.45042" width="191.176" height="195.132" filterUnits="userSpaceOnUse" color-interpolation-filters="sRGB">
<feFlood flood-opacity="0" result="BackgroundImageFix"/>
<feBlend mode="normal" in="SourceGraphic" in2="BackgroundImageFix" result="shape"/>
<feGaussianBlur stdDeviation="21.6144" result="effect1_foregroundBlur_95_3282"/>
</filter>
<filter id="filter1_f_95_3282" x="26.4938" y="20.9713" width="134.462" height="137.245" filterUnits="userSpaceOnUse" color-interpolation-filters="sRGB">
<feFlood flood-opacity="0" result="BackgroundImageFix"/>
<feBlend mode="normal" in="SourceGraphic" in2="BackgroundImageFix" result="shape"/>
<feGaussianBlur stdDeviation="15.2023" result="effect1_foregroundBlur_95_3282"/>
</filter>
<radialGradient id="paint0_radial_95_3282" cx="0" cy="0" r="1" gradientUnits="userSpaceOnUse" gradientTransform="translate(93.714 88.4511) rotate(74.8706) scale(48.2162 48.1321)">
<stop offset="0.427083" stop-color="#E3E901"/>
<stop offset="1" stop-color="#0195FF"/>
</radialGradient>
<radialGradient id="paint1_radial_95_3282" cx="0" cy="0" r="1" gradientUnits="userSpaceOnUse" gradientTransform="translate(91.8468 82.8657) rotate(74.8706) scale(33.9125 33.8533)">
<stop offset="0.427083" stop-color="#E3E901"/>
<stop offset="1" stop-color="#0195FF"/>
</radialGradient>
</defs>
</svg>
