<svg width="248" height="247" viewBox="0 0 248 247" fill="none" xmlns="http://www.w3.org/2000/svg">
<g style="mix-blend-mode:exclusion" clip-path="url(#clip0_95_3140)">
<path d="M29.8701 40.3535L42.3312 58.8976" stroke="white" stroke-width="0.931655" stroke-miterlimit="10"/>
<path d="M22.4932 51.4229L34.9618 69.9669" stroke="white" stroke-width="0.931655" stroke-miterlimit="10"/>
<path d="M45.8857 20.9629L46.647 44.2769" stroke="white" stroke-width="0.931655" stroke-miterlimit="10"/>
<path d="M53.3916 20.1938L68.4788 36.0246" stroke="white" stroke-width="0.931655" stroke-miterlimit="10"/>
<path d="M83.5732 20.1938L104.286 41.9265" stroke="white" stroke-width="0.931655" stroke-miterlimit="10"/>
<path d="M88.3076 3.57666L98.6601 19.9604" stroke="white" stroke-width="0.931655" stroke-miterlimit="10"/>
<path d="M56.0244 53.9463L56.7932 77.2603" stroke="white" stroke-width="0.931655" stroke-miterlimit="10"/>
<path d="M41.9502 68.8438L53.5967 88.0618" stroke="white" stroke-width="0.931655" stroke-miterlimit="10"/>
<path d="M75.2227 8.05273L76.2731 39.9734" stroke="white" stroke-width="0.931655" stroke-miterlimit="10"/>
<path d="M83.833 31.4189L87.365 49.626" stroke="white" stroke-width="0.931655" stroke-miterlimit="10"/>
<path d="M77.6816 46.0225L81.2137 64.2295" stroke="white" stroke-width="0.931655" stroke-miterlimit="10"/>
<path d="M59.291 43.957L75.6038 70.8831" stroke="white" stroke-width="0.931655" stroke-miterlimit="10"/>
<path d="M97.6865 51.5874L83.292 79.8961" stroke="white" stroke-width="0.931655" stroke-miterlimit="10"/>
<path d="M9.65973 82.7651L9.60645 106.088" stroke="white" stroke-width="0.931655" stroke-miterlimit="10"/>
<path d="M32.7622 78.4526L20.8721 97.472" stroke="white" stroke-width="0.931655" stroke-miterlimit="10"/>
<path d="M39.1338 83.0244L42.6125 106.019" stroke="white" stroke-width="0.931655" stroke-miterlimit="10"/>
<path d="M63.0811 103.884L67.8539 135.442" stroke="white" stroke-width="0.931655" stroke-miterlimit="10"/>
<path d="M75.7486 93.9727L75.1777 114.133" stroke="white" stroke-width="0.931655" stroke-miterlimit="10"/>
<path d="M23.1186 111.626L11.2285 130.646" stroke="white" stroke-width="0.931655" stroke-miterlimit="10"/>
<path d="M26.3528 69.1289L18.4971 81.6846" stroke="white" stroke-width="0.931655" stroke-miterlimit="10"/>
<path d="M3.9737 113.718L2.90039 137.015" stroke="white" stroke-width="0.931655" stroke-miterlimit="10"/>
<path d="M62.9677 88.4854L46.6777 114.53" stroke="white" stroke-width="0.931655" stroke-miterlimit="10"/>
<path d="M57.2659 112.975L50.3008 129.851" stroke="white" stroke-width="0.931655" stroke-miterlimit="10"/>
<path d="M81.4419 86.7741L66.918 78.0811" stroke="white" stroke-width="0.931655" stroke-miterlimit="10"/>
<path d="M44.5542 120.311L37.5967 137.187" stroke="white" stroke-width="0.931655" stroke-miterlimit="10"/>
<path d="M106.105 55.5449L103.342 79.1441" stroke="white" stroke-width="0.931655" stroke-miterlimit="10"/>
<path d="M114.715 66.3721L121.155 88.5714" stroke="white" stroke-width="0.931655" stroke-miterlimit="10"/>
<path d="M101.157 98.5181L108.876 125.124" stroke="white" stroke-width="0.931655" stroke-miterlimit="10"/>
<path d="M85.1494 97.1265L94.185 114.495" stroke="white" stroke-width="0.931655" stroke-miterlimit="10"/>
<path d="M94.7715 84.9253L120.95 98.397" stroke="white" stroke-width="0.931655" stroke-miterlimit="10"/>
<path d="M111.129 106.416L124.747 117.226" stroke="white" stroke-width="0.931655" stroke-miterlimit="10"/>
<path d="M127.686 82.5576L141.296 93.3678" stroke="white" stroke-width="0.931655" stroke-miterlimit="10"/>
<path d="M31.0728 105.958L29.5732 138.587" stroke="white" stroke-width="0.931655" stroke-miterlimit="10"/>
<path d="M194.787 17.9473L180.796 35.031" stroke="white" stroke-width="0.931655" stroke-miterlimit="10"/>
<path d="M183.925 11.5698L169.934 28.6622" stroke="white" stroke-width="0.931655" stroke-miterlimit="10"/>
<path d="M214.327 32.5854L194.224 37.39" stroke="white" stroke-width="0.931655" stroke-miterlimit="10"/>
<path d="M216.268 40.855L205.078 60.4187" stroke="white" stroke-width="0.931655" stroke-miterlimit="10"/>
<path d="M221.384 74.6162L206.022 101.473" stroke="white" stroke-width="0.931655" stroke-miterlimit="10"/>
<path d="M236.607 77.105L224.139 91.4667" stroke="white" stroke-width="0.931655" stroke-miterlimit="10"/>
<path d="M187.411 49.5132L167.3 54.3177" stroke="white" stroke-width="0.931655" stroke-miterlimit="10"/>
<path d="M172.095 36.2925L157.381 52.5726" stroke="white" stroke-width="0.931655" stroke-miterlimit="10"/>
<path d="M230.51 63.2183L202.977 69.8029" stroke="white" stroke-width="0.931655" stroke-miterlimit="10"/>
<path d="M211.678 76.811L196.469 83.845" stroke="white" stroke-width="0.931655" stroke-miterlimit="10"/>
<path d="M197.953 72.4038L182.752 79.4378" stroke="white" stroke-width="0.931655" stroke-miterlimit="10"/>
<path d="M196.644 51.4751L176.022 74.2879" stroke="white" stroke-width="0.931655" stroke-miterlimit="10"/>
<path d="M196.514 95.7269L169.499 84.4155" stroke="white" stroke-width="0.931655" stroke-miterlimit="10"/>
<path d="M154.541 2.52246L134.285 6.41101" stroke="white" stroke-width="0.931655" stroke-miterlimit="10"/>
<path d="M162.199 27.6424L143.671 17.5581" stroke="white" stroke-width="0.931655" stroke-miterlimit="10"/>
<path d="M159.306 35.5405L139.934 43.3263" stroke="white" stroke-width="0.931655" stroke-miterlimit="10"/>
<path d="M145.246 65.8628L123.742 74.5127" stroke="white" stroke-width="0.931655" stroke-miterlimit="10"/>
<path d="M155.995 78.3579L138.403 81.1317" stroke="white" stroke-width="0.931655" stroke-miterlimit="10"/>
<path d="M131.766 22.4666L113.238 12.3823" stroke="white" stroke-width="0.931655" stroke-miterlimit="10"/>
<path d="M169.21 18.8803L156.978 12.2266" stroke="white" stroke-width="0.931655" stroke-miterlimit="10"/>
<path d="M126.704 1.39893L106.304 4.14684" stroke="white" stroke-width="0.931655" stroke-miterlimit="10"/>
<path d="M158.606 63.1319L133.234 49.3232" stroke="white" stroke-width="0.931655" stroke-miterlimit="10"/>
<path d="M136.379 60.8938L120.546 55.9683" stroke="white" stroke-width="0.931655" stroke-miterlimit="10"/>
<path d="M163.219 83.5166L168.304 65.7935" stroke="white" stroke-width="0.931655" stroke-miterlimit="10"/>
<path d="M127.853 47.9148L112.02 42.9893" stroke="white" stroke-width="0.931655" stroke-miterlimit="10"/>
<path d="M194.505 105.82L173.549 106.719" stroke="white" stroke-width="0.931655" stroke-miterlimit="10"/>
<path d="M133.22 95.9341L124.123 105.137" stroke="white" stroke-width="0.931655" stroke-miterlimit="10"/>
<path d="M154.419 108.11L130.175 111.929" stroke="white" stroke-width="0.931655" stroke-miterlimit="10"/>
<path d="M154.853 89.4097L141.304 102.458" stroke="white" stroke-width="0.931655" stroke-miterlimit="10"/>
<path d="M167.078 98.103L159.816 129.678" stroke="white" stroke-width="0.931655" stroke-miterlimit="10"/>
<path d="M152.12 116.595L145.049 133.662" stroke="white" stroke-width="0.931655" stroke-miterlimit="10"/>
<path d="M138.03 30.4077L109.446 34.2531" stroke="white" stroke-width="0.931655" stroke-miterlimit="10"/>
<path d="M215.013 207.052L202.59 188.473" stroke="white" stroke-width="0.931655" stroke-miterlimit="10"/>
<path d="M222.411 196L209.988 177.421" stroke="white" stroke-width="0.931655" stroke-miterlimit="10"/>
<path d="M198.95 226.391L198.242 203.077" stroke="white" stroke-width="0.931655" stroke-miterlimit="10"/>
<path d="M191.445 227.143L176.389 211.26" stroke="white" stroke-width="0.931655" stroke-miterlimit="10"/>
<path d="M161.263 227.048L140.596 205.254" stroke="white" stroke-width="0.931655" stroke-miterlimit="10"/>
<path d="M156.49 243.647L146.168 227.229" stroke="white" stroke-width="0.931655" stroke-miterlimit="10"/>
<path d="M188.887 193.373L188.172 170.059" stroke="white" stroke-width="0.931655" stroke-miterlimit="10"/>
<path d="M202.993 178.527L191.399 159.266" stroke="white" stroke-width="0.931655" stroke-miterlimit="10"/>
<path d="M169.583 239.214L168.608 207.293" stroke="white" stroke-width="0.931655" stroke-miterlimit="10"/>
<path d="M161.027 215.814L157.541 197.607" stroke="white" stroke-width="0.931655" stroke-miterlimit="10"/>
<path d="M167.207 201.227L163.721 183.02" stroke="white" stroke-width="0.931655" stroke-miterlimit="10"/>
<path d="M185.599 203.362L169.347 176.384" stroke="white" stroke-width="0.931655" stroke-miterlimit="10"/>
<path d="M147.219 195.602L161.682 167.345" stroke="white" stroke-width="0.931655" stroke-miterlimit="10"/>
<path d="M235.313 164.701L235.428 141.378" stroke="white" stroke-width="0.931655" stroke-miterlimit="10"/>
<path d="M212.203 168.944L224.139 149.959" stroke="white" stroke-width="0.931655" stroke-miterlimit="10"/>
<path d="M205.846 164.347L202.421 141.344" stroke="white" stroke-width="0.931655" stroke-miterlimit="10"/>
<path d="M181.945 143.418L177.248 111.843" stroke="white" stroke-width="0.931655" stroke-miterlimit="10"/>
<path d="M169.263 153.286L169.879 133.134" stroke="white" stroke-width="0.931655" stroke-miterlimit="10"/>
<path d="M221.924 135.796L233.86 116.811" stroke="white" stroke-width="0.931655" stroke-miterlimit="10"/>
<path d="M218.598 178.285L226.476 165.755" stroke="white" stroke-width="0.931655" stroke-miterlimit="10"/>
<path d="M241.084 133.765L242.203 110.477" stroke="white" stroke-width="0.931655" stroke-miterlimit="10"/>
<path d="M182.028 158.817L198.372 132.824" stroke="white" stroke-width="0.931655" stroke-miterlimit="10"/>
<path d="M187.791 134.344L194.787 117.485" stroke="white" stroke-width="0.931655" stroke-miterlimit="10"/>
<path d="M163.546 160.475L178.047 169.203" stroke="white" stroke-width="0.931655" stroke-miterlimit="10"/>
<path d="M200.519 127.051L207.514 110.192" stroke="white" stroke-width="0.931655" stroke-miterlimit="10"/>
<path d="M138.808 191.627L141.632 168.036" stroke="white" stroke-width="0.931655" stroke-miterlimit="10"/>
<path d="M130.221 180.774L123.834 158.557" stroke="white" stroke-width="0.931655" stroke-miterlimit="10"/>
<path d="M143.862 148.671L135.093 118.176" stroke="white" stroke-width="0.931655" stroke-miterlimit="10"/>
<path d="M159.863 150.106L150.873 132.711" stroke="white" stroke-width="0.931655" stroke-miterlimit="10"/>
<path d="M150.218 162.281L124.062 148.732" stroke="white" stroke-width="0.931655" stroke-miterlimit="10"/>
<path d="M134.613 144.023L121.025 133.178" stroke="white" stroke-width="0.931655" stroke-miterlimit="10"/>
<path d="M119.137 164.874L105.55 154.029" stroke="white" stroke-width="0.931655" stroke-miterlimit="10"/>
<path d="M213.961 141.447L215.537 108.81" stroke="white" stroke-width="0.931655" stroke-miterlimit="10"/>
<path d="M50.042 228.957L64.0711 211.908" stroke="white" stroke-width="0.931655" stroke-miterlimit="10"/>
<path d="M60.8896 235.36L74.9188 218.32" stroke="white" stroke-width="0.931655" stroke-miterlimit="10"/>
<path d="M30.5322 214.259L50.6511 209.515" stroke="white" stroke-width="0.931655" stroke-miterlimit="10"/>
<path d="M28.6143 205.989L39.8497 186.46" stroke="white" stroke-width="0.931655" stroke-miterlimit="10"/>
<path d="M23.582 172.202L39.0042 145.396" stroke="white" stroke-width="0.931655" stroke-miterlimit="10"/>
<path d="M8.3584 169.67L20.8651 155.351" stroke="white" stroke-width="0.931655" stroke-miterlimit="10"/>
<path d="M57.4941 197.408L77.613 192.664" stroke="white" stroke-width="0.931655" stroke-miterlimit="10"/>
<path d="M72.7715 210.681L87.5238 194.444" stroke="white" stroke-width="0.931655" stroke-miterlimit="10"/>
<path d="M14.4248 183.573L41.9731 177.075" stroke="white" stroke-width="0.931655" stroke-miterlimit="10"/>
<path d="M33.2871 170.042L48.5113 163.051" stroke="white" stroke-width="0.931655" stroke-miterlimit="10"/>
<path d="M46.998 174.492L62.2223 167.501" stroke="white" stroke-width="0.931655" stroke-miterlimit="10"/>
<path d="M48.2686 195.421L68.9355 172.668" stroke="white" stroke-width="0.931655" stroke-miterlimit="10"/>
<path d="M48.4971 151.169L75.482 162.567" stroke="white" stroke-width="0.931655" stroke-miterlimit="10"/>
<path d="M90.249 244.502L110.52 240.674" stroke="white" stroke-width="0.931655" stroke-miterlimit="10"/>
<path d="M82.6523 219.356L101.157 229.501" stroke="white" stroke-width="0.931655" stroke-miterlimit="10"/>
<path d="M85.5605 211.467L104.949 203.742" stroke="white" stroke-width="0.931655" stroke-miterlimit="10"/>
<path d="M99.6875 181.189L121.222 172.608" stroke="white" stroke-width="0.931655" stroke-miterlimit="10"/>
<path d="M88.9707 168.659L106.57 165.945" stroke="white" stroke-width="0.931655" stroke-miterlimit="10"/>
<path d="M113.07 224.628L131.575 234.764" stroke="white" stroke-width="0.931655" stroke-miterlimit="10"/>
<path d="M75.6191 228.093L87.8366 234.79" stroke="white" stroke-width="0.931655" stroke-miterlimit="10"/>
<path d="M118.079 245.712L138.495 243.025" stroke="white" stroke-width="0.931655" stroke-miterlimit="10"/>
<path d="M86.3291 183.884L111.67 197.771" stroke="white" stroke-width="0.931655" stroke-miterlimit="10"/>
<path d="M108.549 186.183L124.374 191.16" stroke="white" stroke-width="0.931655" stroke-miterlimit="10"/>
<path d="M81.7616 163.483L76.6387 181.189" stroke="white" stroke-width="0.931655" stroke-miterlimit="10"/>
<path d="M117.044 199.188L132.87 204.165" stroke="white" stroke-width="0.931655" stroke-miterlimit="10"/>
<path d="M50.5293 141.085L71.4931 140.247" stroke="white" stroke-width="0.931655" stroke-miterlimit="10"/>
<path d="M0.533203 151.852L18.7414 140.946" stroke="white" stroke-width="0.931655" stroke-miterlimit="10"/>
<path d="M88.6807 139.469L100.38 125.366" stroke="white" stroke-width="0.931655" stroke-miterlimit="10"/>
<path d="M90.1426 157.606L103.723 144.61" stroke="white" stroke-width="0.931655" stroke-miterlimit="10"/>
<path d="M78.7705 149.76L86.101 118.211" stroke="white" stroke-width="0.931655" stroke-miterlimit="10"/>
<path d="M108.815 145.699L115.933 128.659" stroke="white" stroke-width="0.931655" stroke-miterlimit="10"/>
<path d="M106.821 216.669L135.42 212.902" stroke="white" stroke-width="0.931655" stroke-miterlimit="10"/>
<path d="M221.52 104.29L247.583 98.1465" stroke="white" stroke-width="0.931655" stroke-miterlimit="10"/>
</g>
<defs>
<clipPath id="clip0_95_3140">
<rect width="247.82" height="246.888" fill="white" transform="translate(0 0.111328)"/>
</clipPath>
</defs>
</svg>
