<svg width="1074" height="1192" viewBox="0 0 1074 1192" fill="none" xmlns="http://www.w3.org/2000/svg">
<mask id="path-1-inside-1_201_47" fill="white">
<path d="M468.904 705.592C453.847 681.845 438.164 658.619 417.75 639.259C408.241 630.234 402.136 619.509 406.931 604.429C411.039 591.613 406.804 578.842 399.475 567.564C393.837 558.912 387.063 550.965 382.259 541.848C380.323 538.136 379.548 532.537 377.242 521.718C373.348 503.409 374.071 498.856 370.577 492.107C368.738 488.882 367.382 485.384 366.56 481.742C366.171 479.584 365.887 477.41 365.709 475.227C365.088 468.73 364.847 463.633 364.828 463.119C363.636 429.061 391.587 386.852 396.289 379.986L398.242 380.757C364.958 440.689 353.777 464.5 351.421 473.016C349.231 480.976 343.288 487.361 341.32 495.443C341.181 496.592 340.763 497.675 340.105 498.585C339.448 499.495 338.574 500.203 337.57 500.638C336.566 501.073 335.465 501.221 334.375 501.067C333.285 500.914 332.243 500.464 331.351 499.761C309.48 488.161 297.165 474.582 291.582 459.557C283.494 438.01 292.5 413.305 311.644 364.472C337.437 298.586 353.612 286.89 364.768 283.1C369.695 281.403 385.408 275.999 394.954 284.325C397.027 286.258 398.673 288.654 399.768 291.33C404.631 301.574 407.599 316.773 402.936 347.828C401.28 358.706 399.019 369.453 396.165 380.014L398.119 380.784C408.209 347.307 411.304 311.707 407.191 276.419C405.149 256.303 400.18 236.558 392.462 217.892C381.762 192.646 375.877 193.971 372.998 180.031C365.972 145.799 395.127 108.505 411.713 87.2798C429.986 63.9119 445.136 53.2766 443.944 33.599C443.334 24.5469 439.603 15.9578 433.465 9.4784C420.596 -3.11146 400.669 0.544469 380.139 4.68193C358.979 9.28511 338.691 17.2906 319.967 28.4248C303.025 38.1497 279.386 50.7648 261.242 75.2792C251.435 88.5141 240.031 100.553 231.24 114.562C219.563 133.437 218.529 141.068 202.172 168.775C193.311 183.767 188.725 191.437 181.222 199.521C171.538 209.997 162.858 215.581 146.704 225.785C131.091 235.66 126.8 236.73 103.013 250.416C93.0938 256.105 85.207 265.935 73.5881 268.101C47.1578 274.5 6.18349 278.124 7.64864 316.268C7.41373 324.104 5.67963 331.762 2.5516 338.779C-2.18938 350.217 0.267189 361.417 9.85953 368.799C24.0193 379.646 39.511 382.174 56.3784 382.041C76.9497 381.685 97.5595 382.82 118.064 385.44C132.062 387.735 145.21 394.407 155.815 404.597C177.726 426.006 157.439 455.669 153.32 479.792C150.145 493.42 148.586 507.46 148.68 521.592C149.23 536.402 152.939 551.296 156.266 565.93C158.243 574.715 163.324 582.905 164.779 591.669C166.674 601.958 168.653 613.197 166.61 622.956C161.722 646.11 154.22 668.575 148.29 691.411C144.889 703.741 144.776 716.921 147.964 729.51C150.582 739.844 151.989 750.555 155.201 760.652C159.888 775.291 165.471 789.452 171.097 803.949C175.949 816.442 180.103 829.576 186.748 840.974C196.439 858.123 207.332 874.497 219.331 889.952C241.401 916.095 273.266 932.256 305.183 938.726C314.923 940.415 324.824 940.156 334.371 937.963C357.854 932.85 381.003 926.256 404.324 920.281C410.626 918.654 415.33 920.569 421.491 924.643C428.676 929.525 438.594 931.164 447.362 931.576C464.183 932.387 479.772 935.204 492.472 948.627C499.093 955.605 506.59 961.73 512.722 969.13C524.245 983.648 509.313 998.417 501.849 1009.98C497.195 1017.56 493.609 1025.85 491.199 1034.57C489.281 1041.01 488.166 1047.71 487.885 1054.51C487.697 1059.42 487.259 1087.24 505.587 1105.1C507.543 1107 509.642 1108.73 511.862 1110.26C502.523 1094.8 489.626 1079.21 491.191 1059.85C492.4 1047.96 495.286 1036.77 503.967 1028.45C514.639 1018.34 524.011 1006.48 535.924 998.718C552.065 988.171 570.615 982.855 589.647 978.536C598.822 976.276 608.397 976.101 617.751 978.021C627.105 979.94 636.03 983.913 643.948 989.681C658.653 999.783 673.313 1010.55 689.125 1017.81C708.27 1026.5 717.834 1047.99 710.752 1067.01C706.535 1078.33 703.902 1090.5 698.874 1101.38C694.824 1110.14 693.489 1120.6 685.247 1127.13C669.52 1139.52 650.679 1139.37 632.471 1140.74C615.117 1142.01 597.563 1140.68 580.123 1141.28C570.623 1141.66 561.086 1140.3 551.929 1137.26C545.174 1134.95 538.694 1131.77 532.638 1127.78C525.046 1122.93 518.079 1117.03 511.924 1110.25C533.026 1126.84 556.972 1138.78 582.302 1145.36C610.363 1152.38 620.436 1141.2 648.256 1152.19C680.442 1164.89 709.71 1188.06 744.431 1191.17C784.822 1195.45 817.369 1164.17 856.515 1160.48C860.07 1160.57 863.602 1161.3 866.966 1162.62C884.067 1166.68 899.336 1158.44 915.534 1156.49C936.143 1153.99 956.63 1152.11 977.478 1158.45C998.326 1164.78 1019.54 1169.72 1040.76 1174.69C1047.63 1176.11 1054.64 1176.19 1061.47 1174.94C1063.26 1174.25 1064.89 1173.16 1066.24 1171.75C1067.6 1170.33 1068.65 1168.63 1069.33 1166.74C1073.31 1156.46 1074.11 1145.02 1071.6 1134.05C1069.09 1123.07 1063.42 1113.11 1055.37 1105.58C1041.6 1087.43 1023.01 1074.08 1002.13 1067.34C995.424 1065.34 989.263 1061.58 984.224 1056.4C980.399 1052.36 974.974 1047.67 975.481 1042.3C976.116 1035.48 985.296 1035.28 991.596 1026.74C1000.16 1015.17 996.084 998.079 995.913 997.46C991.303 979.14 968.299 964.234 940.516 967.066C943.026 967.191 945.531 967.47 948.019 967.9C967.354 971.395 991.328 986.152 990.449 1000.8C989.892 1010.26 979.137 1016.55 976.255 1018.27C969.886 1021.68 962.718 1023.18 955.508 1022.6C948.244 1022.54 930.625 1022.49 918.249 1008.93C915.027 1005.4 910.77 1000.73 910.431 994.475C909.924 983.597 921.569 972.057 940.493 966.967C880.21 980.295 879.029 980.803 879.029 980.803C843.723 992.207 830.923 987.829 813.19 997.49C807.019 1000.85 800.849 996.016 797.472 989.068C787.676 968.561 754.481 987.614 740.097 993.03C730.744 997.209 724.231 996.602 716.568 989.166C712.018 985.359 707.81 981.109 704 976.474C691.513 959.684 670.803 967.768 654.977 971.089C651.527 971.866 646.979 975.102 644.853 969.254C643.026 964.446 642.446 959.425 647.651 955.8C652.856 952.174 657.434 948.066 662.455 944.343C676.07 934.365 679.755 918.809 681.809 902.48C684.257 883.158 678.98 864.607 673.43 846.568C669.756 835.523 664.391 825.154 657.557 815.883C641.249 791.9 622.778 762.042 590.921 768.349C573.976 771.079 557.5 776.147 541.908 783.427C534.328 786.999 524.641 787.106 515.943 786.575C493.396 783.907 492.777 754.698 485.608 737.23C482.117 729.285 478.212 721.543 473.913 714.04C474.156 716.292 474.761 718.495 475.703 720.551C484.4 733.734 486.527 749.226 489.099 764.099C490.629 773.053 491.384 783.6 488.318 791.549C476.926 819.314 457.679 843.385 437.131 863.981C428.097 872.013 420.191 881.366 413.639 891.773C410.081 898.073 404.98 903.206 398.86 906.646C373.903 919.593 346.426 928.82 318.082 927.146C289.737 925.472 262.185 920.128 239.07 898.403C222.546 882.882 208.321 864.802 196.901 844.808C189.138 831.172 184.072 815.858 177.438 801.484C160.362 766.611 157.392 721.926 182.408 692.131C226.42 638.011 304.263 637.98 367.542 642.126C387.792 643.79 407.981 648.06 425.4 660.732C438.803 670.133 450.345 682.271 459.327 696.409C462.143 699.886 465.362 702.973 468.904 705.592ZM362.791 63.7931C363.827 76.5922 356.725 84.5861 349.348 98.5529C343.266 109.595 338.763 121.567 335.984 134.09C328.43 163.52 323.931 193.822 322.565 224.465C321.401 253.661 318.69 283.033 308.884 310.509C301.607 330.814 294.253 351.206 285.262 370.653C276.918 387.949 264.602 402.657 249.418 413.462C237.59 422.175 222.936 426.821 210.352 422.256C185.403 412.801 141.556 403.52 139.189 368.413C138.894 360.832 137.793 353.287 135.906 345.922C131.243 330.24 119.479 319.683 108.889 308.585C101.391 300.732 99.515 291.821 104.708 282.39C112.603 267.996 126.227 260.504 138.127 250.669C153.85 237.831 170.606 225.556 183.44 209.807C207.888 179.069 227.37 143.675 249.789 111.112C253.594 105.727 258.635 101.377 262.785 96.2261C270.244 86.9419 279.833 80.3586 288.31 72.4353C294.804 66.3413 308.081 58.1674 325.659 51.4106C339.303 46.1615 349.381 42.6139 356.223 47.9874C361.865 52.4902 362.546 60.9791 362.791 63.7931ZM596.835 954.241C562.251 961.231 520.365 964.541 493.27 933.479C478.044 916.165 469.812 896.136 475.276 872.091C487.229 823.666 543.717 780.392 589.614 773.759C610.97 770.127 632.064 781.868 639.489 804.498C642.13 813.933 644.284 823.5 645.939 833.156C648.754 845.574 654.027 857.282 661.405 867.492C666.167 874.267 672.345 881.864 673.132 889.534C678.907 939.776 630.962 943.205 596.835 954.241ZM823.918 1002.44C837.955 998.218 852.96 998.443 867.115 1003.09C893.588 1012.41 918.531 1040.67 915.419 1064.81C914.537 1071.68 914.056 1080.32 895.956 1093.38C862.921 1117.03 832.277 1144.12 800.018 1168.77C790.383 1176.28 779.352 1181.59 767.597 1184.36C745.476 1189.34 702.695 1180.48 695.181 1153.86C682.418 1091.12 773.596 1015.87 824.072 1002.4L823.918 1002.44ZM223.509 437.132C234.129 439.362 243.942 444.97 251.631 453.202C257.84 459.951 262.54 468.084 265.365 476.97C283.947 530.759 276.102 563.636 298.544 593.015C311.925 610.467 324.902 612.178 323.572 619.357C320.804 633.807 266.034 631.652 233.415 626.377C195.422 620.238 183.178 609.27 176.847 601.708C169.802 593.131 164.8 582.909 162.28 571.939C159.28 559.479 151.288 541.228 152.357 517.792C152.862 506.374 154.334 473.514 178.299 452.425C182.892 448.384 200.576 432.753 223.509 437.132ZM399.977 585.184C406.411 603.267 388.357 626.171 367.199 621.047C349.67 616.8 336.495 605.87 325.529 591.814C312.086 574.514 298.349 557.349 291.564 535.405C286.121 520.141 296.607 500.288 313.678 509.686C326.794 516.758 339.807 524.095 352.416 532.077C360.994 537.544 368.621 544.676 377.012 550.462C389.309 558.928 395.684 571.286 399.977 585.184ZM878.277 1152.47C873.753 1145.74 906.562 1100.81 954.478 1090.06C964.302 1087.76 974.459 1087.18 984.55 1088.34C1020.51 1093.21 1055.41 1123.41 1051.82 1141.57C1050.28 1149.11 1042.56 1153.06 1038.98 1154.84C1018.35 1165.29 1005.64 1146.37 970.796 1143.43C950.999 1141.77 918.164 1144.73 889.014 1151.85C883.891 1153.1 879.697 1154.46 878.4 1152.44L878.277 1152.47ZM30.0073 332.046C35.861 330.728 71.7055 322.867 99.1568 342.717C102.824 345.348 105.286 347.802 105.514 350.827C106.161 359.739 87.7541 367.27 79.9383 368.787C66.2317 371.419 52.321 372.898 38.3345 373.209C30.3458 373.383 21.9598 372.367 14.7095 366.186C8.97073 361.256 6.36821 355.446 7.0516 350.142C7.735 344.837 12.2938 341.218 16.1159 338.353C20.2929 335.216 25.0665 333.058 30.1305 332.018L30.0073 332.046ZM47.7364 279.659C53.6108 277.714 62.645 274.851 70.9596 279.72C72.0765 280.368 79.0141 284.441 79.3934 290.439C79.8271 297.255 71.6909 302.094 61.683 308.253C49.7368 315.436 40.5409 321.032 29.5599 317.835C27.3745 317.186 18.2336 314.543 16.681 308.22C14.2938 297.903 32.8808 284.559 47.8522 279.598L47.7364 279.659ZM419.509 916.413C417.937 913.31 418.601 910.222 419.843 904.377C420.779 900.053 424.461 883.046 438.721 874.927C441.235 873.381 444.005 872.336 446.896 871.842C454.494 870.651 462.197 875.105 467.506 879.994C468.329 880.776 468.388 882.906 468.329 884.371C468.243 888.693 467.533 892.957 466.222 897.014C463.228 906.433 458.364 917.035 447.57 921.573C437.572 925.76 423.302 924.201 419.509 916.413ZM755.781 997.416C760.55 996.195 765.469 995.657 770.408 995.817C778.669 996.135 785.424 996.377 787.202 999.814C791.186 1007.59 771.362 1033.56 746.913 1036.54C743.343 1036.93 731.138 1038.36 726.572 1031.16C723 1025.5 726.043 1017.45 726.468 1016.32C731.46 1003.41 746.791 999.612 755.657 997.443L755.781 997.416ZM676.9 971.27C681.471 971.547 685.955 972.899 690.027 975.229C696.204 978.367 696.808 980.616 706.133 987.816C715.457 995.016 719.573 996.475 719.231 998.695C718.8 1001.52 711.92 1002.31 702.887 1003.31C693.853 1004.3 689.374 1004.83 684.088 1002.77C678.801 1000.71 678.799 998.255 671.937 994.373C661.134 988.232 654.502 990.693 653.455 987.333C651.858 982.542 663.926 971.01 676.777 971.298L676.9 971.27ZM140.447 240.122C134.146 248.175 126.369 254.778 117.564 259.55C105.37 266.063 90.3438 269.342 89.1215 266.644C87.8992 263.946 100.928 254.238 112.561 248.543C121.358 244.233 130.762 241.394 140.447 240.122ZM362.663 486.145C369.079 486.602 376.076 514.237 369.105 519.505C366.745 521.101 363.878 521.672 361.081 521.104C359.45 520.85 357.923 520.057 356.718 518.837C355.995 518.066 353.732 515.637 353.822 508.703C353.946 499.619 358.207 485.904 362.663 486.145ZM447.258 867.267C444.547 867.877 443.381 868.451 442.879 867.803C441.161 865.632 448.697 852.666 460.25 848.337C463.883 846.932 463.967 847.881 468.917 846.144C478.81 842.638 483.802 836.917 484.625 837.838C485.447 838.759 481.514 842.859 477.015 850.336C469.107 863.524 470.063 868.632 465.454 870.016C460.266 871.702 456.709 865.969 447.311 867.359L447.258 867.267ZM674.337 866.413C673.228 866.663 672.119 866.912 671.041 867.155C662.709 863.361 660.521 854.935 658.414 846.871C658.037 845.193 660.421 841.407 662.094 840.927C663.766 840.447 666.909 842.332 668.347 844.117C673.537 850.346 673.479 858.863 674.359 866.512L674.337 866.413Z"/>
</mask>
<path d="M468.904 705.592C453.847 681.845 438.164 658.619 417.75 639.259C408.241 630.234 402.136 619.509 406.931 604.429C411.039 591.613 406.804 578.842 399.475 567.564C393.837 558.912 387.063 550.965 382.259 541.848C380.323 538.136 379.548 532.537 377.242 521.718C373.348 503.409 374.071 498.856 370.577 492.107C368.738 488.882 367.382 485.384 366.56 481.742C366.171 479.584 365.887 477.41 365.709 475.227C365.088 468.73 364.847 463.633 364.828 463.119C363.636 429.061 391.587 386.852 396.289 379.986L398.242 380.757C364.958 440.689 353.777 464.5 351.421 473.016C349.231 480.976 343.288 487.361 341.32 495.443C341.181 496.592 340.763 497.675 340.105 498.585C339.448 499.495 338.574 500.203 337.57 500.638C336.566 501.073 335.465 501.221 334.375 501.067C333.285 500.914 332.243 500.464 331.351 499.761C309.48 488.161 297.165 474.582 291.582 459.557C283.494 438.01 292.5 413.305 311.644 364.472C337.437 298.586 353.612 286.89 364.768 283.1C369.695 281.403 385.408 275.999 394.954 284.325C397.027 286.258 398.673 288.654 399.768 291.33C404.631 301.574 407.599 316.773 402.936 347.828C401.28 358.706 399.019 369.453 396.165 380.014L398.119 380.784C408.209 347.307 411.304 311.707 407.191 276.419C405.149 256.303 400.18 236.558 392.462 217.892C381.762 192.646 375.877 193.971 372.998 180.031C365.972 145.799 395.127 108.505 411.713 87.2798C429.986 63.9119 445.136 53.2766 443.944 33.599C443.334 24.5469 439.603 15.9578 433.465 9.4784C420.596 -3.11146 400.669 0.544469 380.139 4.68193C358.979 9.28511 338.691 17.2906 319.967 28.4248C303.025 38.1497 279.386 50.7648 261.242 75.2792C251.435 88.5141 240.031 100.553 231.24 114.562C219.563 133.437 218.529 141.068 202.172 168.775C193.311 183.767 188.725 191.437 181.222 199.521C171.538 209.997 162.858 215.581 146.704 225.785C131.091 235.66 126.8 236.73 103.013 250.416C93.0938 256.105 85.207 265.935 73.5881 268.101C47.1578 274.5 6.18349 278.124 7.64864 316.268C7.41373 324.104 5.67963 331.762 2.5516 338.779C-2.18938 350.217 0.267189 361.417 9.85953 368.799C24.0193 379.646 39.511 382.174 56.3784 382.041C76.9497 381.685 97.5595 382.82 118.064 385.44C132.062 387.735 145.21 394.407 155.815 404.597C177.726 426.006 157.439 455.669 153.32 479.792C150.145 493.42 148.586 507.46 148.68 521.592C149.23 536.402 152.939 551.296 156.266 565.93C158.243 574.715 163.324 582.905 164.779 591.669C166.674 601.958 168.653 613.197 166.61 622.956C161.722 646.11 154.22 668.575 148.29 691.411C144.889 703.741 144.776 716.921 147.964 729.51C150.582 739.844 151.989 750.555 155.201 760.652C159.888 775.291 165.471 789.452 171.097 803.949C175.949 816.442 180.103 829.576 186.748 840.974C196.439 858.123 207.332 874.497 219.331 889.952C241.401 916.095 273.266 932.256 305.183 938.726C314.923 940.415 324.824 940.156 334.371 937.963C357.854 932.85 381.003 926.256 404.324 920.281C410.626 918.654 415.33 920.569 421.491 924.643C428.676 929.525 438.594 931.164 447.362 931.576C464.183 932.387 479.772 935.204 492.472 948.627C499.093 955.605 506.59 961.73 512.722 969.13C524.245 983.648 509.313 998.417 501.849 1009.98C497.195 1017.56 493.609 1025.85 491.199 1034.57C489.281 1041.01 488.166 1047.71 487.885 1054.51C487.697 1059.42 487.259 1087.24 505.587 1105.1C507.543 1107 509.642 1108.73 511.862 1110.26C502.523 1094.8 489.626 1079.21 491.191 1059.85C492.4 1047.96 495.286 1036.77 503.967 1028.45C514.639 1018.34 524.011 1006.48 535.924 998.718C552.065 988.171 570.615 982.855 589.647 978.536C598.822 976.276 608.397 976.101 617.751 978.021C627.105 979.94 636.03 983.913 643.948 989.681C658.653 999.783 673.313 1010.55 689.125 1017.81C708.27 1026.5 717.834 1047.99 710.752 1067.01C706.535 1078.33 703.902 1090.5 698.874 1101.38C694.824 1110.14 693.489 1120.6 685.247 1127.13C669.52 1139.52 650.679 1139.37 632.471 1140.74C615.117 1142.01 597.563 1140.68 580.123 1141.28C570.623 1141.66 561.086 1140.3 551.929 1137.26C545.174 1134.95 538.694 1131.77 532.638 1127.78C525.046 1122.93 518.079 1117.03 511.924 1110.25C533.026 1126.84 556.972 1138.78 582.302 1145.36C610.363 1152.38 620.436 1141.2 648.256 1152.19C680.442 1164.89 709.71 1188.06 744.431 1191.17C784.822 1195.45 817.369 1164.17 856.515 1160.48C860.07 1160.57 863.602 1161.3 866.966 1162.62C884.067 1166.68 899.336 1158.44 915.534 1156.49C936.143 1153.99 956.63 1152.11 977.478 1158.45C998.326 1164.78 1019.54 1169.72 1040.76 1174.69C1047.63 1176.11 1054.64 1176.19 1061.47 1174.94C1063.26 1174.25 1064.89 1173.16 1066.24 1171.75C1067.6 1170.33 1068.65 1168.63 1069.33 1166.74C1073.31 1156.46 1074.11 1145.02 1071.6 1134.05C1069.09 1123.07 1063.42 1113.11 1055.37 1105.58C1041.6 1087.43 1023.01 1074.08 1002.13 1067.34C995.424 1065.34 989.263 1061.58 984.224 1056.4C980.399 1052.36 974.974 1047.67 975.481 1042.3C976.116 1035.48 985.296 1035.28 991.596 1026.74C1000.16 1015.17 996.084 998.079 995.913 997.46C991.303 979.14 968.299 964.234 940.516 967.066C943.026 967.191 945.531 967.47 948.019 967.9C967.354 971.395 991.328 986.152 990.449 1000.8C989.892 1010.26 979.137 1016.55 976.255 1018.27C969.886 1021.68 962.718 1023.18 955.508 1022.6C948.244 1022.54 930.625 1022.49 918.249 1008.93C915.027 1005.4 910.77 1000.73 910.431 994.475C909.924 983.597 921.569 972.057 940.493 966.967C880.21 980.295 879.029 980.803 879.029 980.803C843.723 992.207 830.923 987.829 813.19 997.49C807.019 1000.85 800.849 996.016 797.472 989.068C787.676 968.561 754.481 987.614 740.097 993.03C730.744 997.209 724.231 996.602 716.568 989.166C712.018 985.359 707.81 981.109 704 976.474C691.513 959.684 670.803 967.768 654.977 971.089C651.527 971.866 646.979 975.102 644.853 969.254C643.026 964.446 642.446 959.425 647.651 955.8C652.856 952.174 657.434 948.066 662.455 944.343C676.07 934.365 679.755 918.809 681.809 902.48C684.257 883.158 678.98 864.607 673.43 846.568C669.756 835.523 664.391 825.154 657.557 815.883C641.249 791.9 622.778 762.042 590.921 768.349C573.976 771.079 557.5 776.147 541.908 783.427C534.328 786.999 524.641 787.106 515.943 786.575C493.396 783.907 492.777 754.698 485.608 737.23C482.117 729.285 478.212 721.543 473.913 714.04C474.156 716.292 474.761 718.495 475.703 720.551C484.4 733.734 486.527 749.226 489.099 764.099C490.629 773.053 491.384 783.6 488.318 791.549C476.926 819.314 457.679 843.385 437.131 863.981C428.097 872.013 420.191 881.366 413.639 891.773C410.081 898.073 404.98 903.206 398.86 906.646C373.903 919.593 346.426 928.82 318.082 927.146C289.737 925.472 262.185 920.128 239.07 898.403C222.546 882.882 208.321 864.802 196.901 844.808C189.138 831.172 184.072 815.858 177.438 801.484C160.362 766.611 157.392 721.926 182.408 692.131C226.42 638.011 304.263 637.98 367.542 642.126C387.792 643.79 407.981 648.06 425.4 660.732C438.803 670.133 450.345 682.271 459.327 696.409C462.143 699.886 465.362 702.973 468.904 705.592ZM362.791 63.7931C363.827 76.5922 356.725 84.5861 349.348 98.5529C343.266 109.595 338.763 121.567 335.984 134.09C328.43 163.52 323.931 193.822 322.565 224.465C321.401 253.661 318.69 283.033 308.884 310.509C301.607 330.814 294.253 351.206 285.262 370.653C276.918 387.949 264.602 402.657 249.418 413.462C237.59 422.175 222.936 426.821 210.352 422.256C185.403 412.801 141.556 403.52 139.189 368.413C138.894 360.832 137.793 353.287 135.906 345.922C131.243 330.24 119.479 319.683 108.889 308.585C101.391 300.732 99.515 291.821 104.708 282.39C112.603 267.996 126.227 260.504 138.127 250.669C153.85 237.831 170.606 225.556 183.44 209.807C207.888 179.069 227.37 143.675 249.789 111.112C253.594 105.727 258.635 101.377 262.785 96.2261C270.244 86.9419 279.833 80.3586 288.31 72.4353C294.804 66.3413 308.081 58.1674 325.659 51.4106C339.303 46.1615 349.381 42.6139 356.223 47.9874C361.865 52.4902 362.546 60.9791 362.791 63.7931ZM596.835 954.241C562.251 961.231 520.365 964.541 493.27 933.479C478.044 916.165 469.812 896.136 475.276 872.091C487.229 823.666 543.717 780.392 589.614 773.759C610.97 770.127 632.064 781.868 639.489 804.498C642.13 813.933 644.284 823.5 645.939 833.156C648.754 845.574 654.027 857.282 661.405 867.492C666.167 874.267 672.345 881.864 673.132 889.534C678.907 939.776 630.962 943.205 596.835 954.241ZM823.918 1002.44C837.955 998.218 852.96 998.443 867.115 1003.09C893.588 1012.41 918.531 1040.67 915.419 1064.81C914.537 1071.68 914.056 1080.32 895.956 1093.38C862.921 1117.03 832.277 1144.12 800.018 1168.77C790.383 1176.28 779.352 1181.59 767.597 1184.36C745.476 1189.34 702.695 1180.48 695.181 1153.86C682.418 1091.12 773.596 1015.87 824.072 1002.4L823.918 1002.44ZM223.509 437.132C234.129 439.362 243.942 444.97 251.631 453.202C257.84 459.951 262.54 468.084 265.365 476.97C283.947 530.759 276.102 563.636 298.544 593.015C311.925 610.467 324.902 612.178 323.572 619.357C320.804 633.807 266.034 631.652 233.415 626.377C195.422 620.238 183.178 609.27 176.847 601.708C169.802 593.131 164.8 582.909 162.28 571.939C159.28 559.479 151.288 541.228 152.357 517.792C152.862 506.374 154.334 473.514 178.299 452.425C182.892 448.384 200.576 432.753 223.509 437.132ZM399.977 585.184C406.411 603.267 388.357 626.171 367.199 621.047C349.67 616.8 336.495 605.87 325.529 591.814C312.086 574.514 298.349 557.349 291.564 535.405C286.121 520.141 296.607 500.288 313.678 509.686C326.794 516.758 339.807 524.095 352.416 532.077C360.994 537.544 368.621 544.676 377.012 550.462C389.309 558.928 395.684 571.286 399.977 585.184ZM878.277 1152.47C873.753 1145.74 906.562 1100.81 954.478 1090.06C964.302 1087.76 974.459 1087.18 984.55 1088.34C1020.51 1093.21 1055.41 1123.41 1051.82 1141.57C1050.28 1149.11 1042.56 1153.06 1038.98 1154.84C1018.35 1165.29 1005.64 1146.37 970.796 1143.43C950.999 1141.77 918.164 1144.73 889.014 1151.85C883.891 1153.1 879.697 1154.46 878.4 1152.44L878.277 1152.47ZM30.0073 332.046C35.861 330.728 71.7055 322.867 99.1568 342.717C102.824 345.348 105.286 347.802 105.514 350.827C106.161 359.739 87.7541 367.27 79.9383 368.787C66.2317 371.419 52.321 372.898 38.3345 373.209C30.3458 373.383 21.9598 372.367 14.7095 366.186C8.97073 361.256 6.36821 355.446 7.0516 350.142C7.735 344.837 12.2938 341.218 16.1159 338.353C20.2929 335.216 25.0665 333.058 30.1305 332.018L30.0073 332.046ZM47.7364 279.659C53.6108 277.714 62.645 274.851 70.9596 279.72C72.0765 280.368 79.0141 284.441 79.3934 290.439C79.8271 297.255 71.6909 302.094 61.683 308.253C49.7368 315.436 40.5409 321.032 29.5599 317.835C27.3745 317.186 18.2336 314.543 16.681 308.22C14.2938 297.903 32.8808 284.559 47.8522 279.598L47.7364 279.659ZM419.509 916.413C417.937 913.31 418.601 910.222 419.843 904.377C420.779 900.053 424.461 883.046 438.721 874.927C441.235 873.381 444.005 872.336 446.896 871.842C454.494 870.651 462.197 875.105 467.506 879.994C468.329 880.776 468.388 882.906 468.329 884.371C468.243 888.693 467.533 892.957 466.222 897.014C463.228 906.433 458.364 917.035 447.57 921.573C437.572 925.76 423.302 924.201 419.509 916.413ZM755.781 997.416C760.55 996.195 765.469 995.657 770.408 995.817C778.669 996.135 785.424 996.377 787.202 999.814C791.186 1007.59 771.362 1033.56 746.913 1036.54C743.343 1036.93 731.138 1038.36 726.572 1031.16C723 1025.5 726.043 1017.45 726.468 1016.32C731.46 1003.41 746.791 999.612 755.657 997.443L755.781 997.416ZM676.9 971.27C681.471 971.547 685.955 972.899 690.027 975.229C696.204 978.367 696.808 980.616 706.133 987.816C715.457 995.016 719.573 996.475 719.231 998.695C718.8 1001.52 711.92 1002.31 702.887 1003.31C693.853 1004.3 689.374 1004.83 684.088 1002.77C678.801 1000.71 678.799 998.255 671.937 994.373C661.134 988.232 654.502 990.693 653.455 987.333C651.858 982.542 663.926 971.01 676.777 971.298L676.9 971.27ZM140.447 240.122C134.146 248.175 126.369 254.778 117.564 259.55C105.37 266.063 90.3438 269.342 89.1215 266.644C87.8992 263.946 100.928 254.238 112.561 248.543C121.358 244.233 130.762 241.394 140.447 240.122ZM362.663 486.145C369.079 486.602 376.076 514.237 369.105 519.505C366.745 521.101 363.878 521.672 361.081 521.104C359.45 520.85 357.923 520.057 356.718 518.837C355.995 518.066 353.732 515.637 353.822 508.703C353.946 499.619 358.207 485.904 362.663 486.145ZM447.258 867.267C444.547 867.877 443.381 868.451 442.879 867.803C441.161 865.632 448.697 852.666 460.25 848.337C463.883 846.932 463.967 847.881 468.917 846.144C478.81 842.638 483.802 836.917 484.625 837.838C485.447 838.759 481.514 842.859 477.015 850.336C469.107 863.524 470.063 868.632 465.454 870.016C460.266 871.702 456.709 865.969 447.311 867.359L447.258 867.267ZM674.337 866.413C673.228 866.663 672.119 866.912 671.041 867.155C662.709 863.361 660.521 854.935 658.414 846.871C658.037 845.193 660.421 841.407 662.094 840.927C663.766 840.447 666.909 842.332 668.347 844.117C673.537 850.346 673.479 858.863 674.359 866.512L674.337 866.413Z" fill="black" stroke="white" stroke-width="2" mask="url(#path-1-inside-1_201_47)"/>
</svg>
